name ./resultDataOpenSim/trcMotMarkerGrf/sub06/grf-05-02.mot
datacolumns 19
datarows 17
range 1.63200000 1.69600000
endheader

                time	     ground_force_vx	     ground_force_vy	     ground_force_vz	     ground_force_px	     ground_force_py	     ground_force_pz	   l_ground_force_vx	   l_ground_force_vy	   l_ground_force_vz	   l_ground_force_px	   l_ground_force_py	   l_ground_force_pz	     ground_torque_x	     ground_torque_y	     ground_torque_z	   l_ground_torque_x	   l_ground_torque_y	   l_ground_torque_z	
          1.63200000	        121.35578601	        705.25550643	        -19.72803493	          0.83321263	          0.00000000	          0.13364666	          0.00000000	          0.00000000	          0.00000000	          0.00000000	          0.00000000	          0.00000000	          0.00000000	          3.44590237	          0.00000000	          0.00000000	          0.00000000	          0.00000000	
          1.63600000	        127.31253050	        720.28268202	        -19.44791376	          0.83401755	          0.00000000	          0.13324562	          0.00000000	          0.00000000	          0.00000000	          0.00000000	          0.00000000	          0.00000000	          0.00000000	          3.54415458	          0.00000000	          0.00000000	          0.00000000	          0.00000000	
          1.64000000	        133.50569952	        734.54979730	        -19.63297619	          0.83476526	          0.00000000	          0.13287431	          0.00000000	          0.00000000	          0.00000000	          0.00000000	          0.00000000	          0.00000000	          0.00000000	          3.64675900	          0.00000000	          0.00000000	          0.00000000	          0.00000000	
          1.64400000	        139.79706789	        747.99950454	        -20.22435701	          0.83546544	          0.00000000	          0.13252657	          0.00000000	          0.00000000	          0.00000000	          0.00000000	          0.00000000	          0.00000000	          0.00000000	          3.75546866	          0.00000000	          0.00000000	          0.00000000	          0.00000000	
          1.64800000	        146.03800654	        760.56480509	        -21.11108080	          0.83612787	          0.00000000	          0.13219424	          0.00000000	          0.00000000	          0.00000000	          0.00000000	          0.00000000	          0.00000000	          0.00000000	          3.87081688	          0.00000000	          0.00000000	          0.00000000	          0.00000000	
          1.65200000	        152.10010043	        772.15032218	        -22.14849363	          0.83676501	          0.00000000	          0.13186977	          0.00000000	          0.00000000	          0.00000000	          0.00000000	          0.00000000	          0.00000000	          0.00000000	          3.99170119	          0.00000000	          0.00000000	          0.00000000	          0.00000000	
          1.65600000	        157.90785727	        782.62557182	        -23.17933324	          0.83738587	          0.00000000	          0.13155004	          0.00000000	          0.00000000	          0.00000000	          0.00000000	          0.00000000	          0.00000000	          0.00000000	          4.11486130	          0.00000000	          0.00000000	          0.00000000	          0.00000000	
          1.66000000	        163.47203238	        791.83977491	        -24.05417685	          0.83799417	          0.00000000	          0.13123420	          0.00000000	          0.00000000	          0.00000000	          0.00000000	          0.00000000	          0.00000000	          0.00000000	          4.23447641	          0.00000000	          0.00000000	          0.00000000	          0.00000000	
          1.66400000	        168.90968374	        799.63708824	        -24.65258561	          0.83859540	          0.00000000	          0.13092098	          0.00000000	          0.00000000	          0.00000000	          0.00000000	          0.00000000	          0.00000000	          0.00000000	          4.34231404	          0.00000000	          0.00000000	          0.00000000	          0.00000000	
          1.66800000	        174.41453220	        805.86886029	        -24.90794722	          0.83918076	          0.00000000	          0.13060749	          0.00000000	          0.00000000	          0.00000000	          0.00000000	          0.00000000	          0.00000000	          0.00000000	          4.42895716	          0.00000000	          0.00000000	          0.00000000	          0.00000000	
          1.67200000	        180.15993190	        810.40913247	        -24.82300175	          0.83972140	          0.00000000	          0.13028958	          0.00000000	          0.00000000	          0.00000000	          0.00000000	          0.00000000	          0.00000000	          0.00000000	          4.48635388	          0.00000000	          0.00000000	          0.00000000	          0.00000000	
          1.67600000	        186.19681211	        813.16890832	        -24.45419518	          0.84021431	          0.00000000	          0.12996514	          0.00000000	          0.00000000	          0.00000000	          0.00000000	          0.00000000	          0.00000000	          0.00000000	          4.51106449	          0.00000000	          0.00000000	          0.00000000	          0.00000000	
          1.68000000	        192.43273344	        814.09986470	        -23.87855466	          0.84069215	          0.00000000	          0.12962871	          0.00000000	          0.00000000	          0.00000000	          0.00000000	          0.00000000	          0.00000000	          0.00000000	          4.50659550	          0.00000000	          0.00000000	          0.00000000	          0.00000000	
          1.68400000	        198.68203421	        813.17734072	        -23.17563666	          0.84118396	          0.00000000	          0.12927014	          0.00000000	          0.00000000	          0.00000000	          0.00000000	          0.00000000	          0.00000000	          0.00000000	          4.48319601	          0.00000000	          0.00000000	          0.00000000	          0.00000000	
          1.68800000	        204.71729491	        810.37490026	        -22.41786588	          0.84170391	          0.00000000	          0.12888667	          0.00000000	          0.00000000	          0.00000000	          0.00000000	          0.00000000	          0.00000000	          0.00000000	          4.45473182	          0.00000000	          0.00000000	          0.00000000	          0.00000000	
          1.69200000	        210.30298886	        805.66018190	        -21.65482908	          0.84226715	          0.00000000	          0.12848051	          0.00000000	          0.00000000	          0.00000000	          0.00000000	          0.00000000	          0.00000000	          0.00000000	          4.43381071	          0.00000000	          0.00000000	          0.00000000	          0.00000000	
          1.69600000	        215.23891547	        799.01655009	        -20.90924763	          0.84289115	          0.00000000	          0.12805172	          0.00000000	          0.00000000	          0.00000000	          0.00000000	          0.00000000	          0.00000000	          0.00000000	          4.42725206	          0.00000000	          0.00000000	          0.00000000	          0.00000000	
